<?xml version="1.0" standalone="no"?><svg xmlns="http://www.w3.org/2000/svg" viewBox="0 0 1440 320"><path fill="#0099ff" fill-opacity="1" d="M0,256L34.3,245.3C68.6,235,137,213,206,181.3C274.3,149,343,107,411,112C480,117,549,171,617,208C685.7,245,754,267,823,245.3C891.4,224,960,160,1029,138.7C1097.1,117,1166,139,1234,138.7C1302.9,139,1371,117,1406,106.7L1440,96L1440,0L1405.7,0C1371.4,0,1303,0,1234,0C1165.7,0,1097,0,1029,0C960,0,891,0,823,0C754.3,0,686,0,617,0C548.6,0,480,0,411,0C342.9,0,274,0,206,0C137.1,0,69,0,34,0L0,0Z" data-darkreader-inline-fill="" style="--darkreader-inline-fill:#007acc;"></path></svg>